grf
version=1
nRows=14
nColumns=46
inDegrees=yes
endheader
time	ground_force_1_vx	ground_force_1_vy	ground_force_1_vz	ground_force_1_px	ground_force_1_py	ground_force_1_pz	ground_moment_1_mx	ground_moment_1_my	ground_moment_1_mz	ground_force_2_vx	ground_force_2_vy	ground_force_2_vz	ground_force_2_px	ground_force_2_py	ground_force_2_pz	ground_moment_2_mx	ground_moment_2_my	ground_moment_2_mz	ground_force_3_vx	ground_force_3_vy	ground_force_3_vz	ground_force_3_px	ground_force_3_py	ground_force_3_pz	ground_moment_3_mx	ground_moment_3_my	ground_moment_3_mz	ground_force_4_vx	ground_force_4_vy	ground_force_4_vz	ground_force_4_px	ground_force_4_py	ground_force_4_pz	ground_moment_4_mx	ground_moment_4_my	ground_moment_4_mz	ground_force_5_vx	ground_force_5_vy	ground_force_5_vz	ground_force_5_px	ground_force_5_py	ground_force_5_pz	ground_moment_5_mx	ground_moment_5_my	ground_moment_5_mz
7.725000	0.000000	0.000000	0.000000	0.000000	0.000000	0.000000	0.000000	0.000000	0.000000	0.000000	0.000000	0.000000	0.000000	0.000000	0.000000	0.000000	0.000000	0.000000	0.000000	0.000000	0.000000	0.000000	0.000000	0.000000	0.000000	0.000000	0.000000	15.735336	554.124975	11.225543	1.083421	0.000000	0.238722	-0.000000	6.638049	0.000000	-12.191995	592.943010	1.528071	1.387183	0.000000	0.261731	0.000000	-4.517898	-0.000000
7.725500	0.000000	0.000000	0.000000	0.000000	0.000000	0.000000	0.000000	0.000000	0.000000	0.000000	0.000000	0.000000	0.000000	0.000000	0.000000	0.000000	0.000000	0.000000	0.000000	0.000000	0.000000	0.000000	0.000000	0.000000	0.000000	0.000000	0.000000	15.704891	553.999108	11.240425	1.083445	0.000000	0.238706	-0.000000	6.631968	0.000000	-12.190266	592.863853	1.567308	1.387183	0.000000	0.261714	0.000000	-4.523452	-0.000000
7.726000	0.000000	0.000000	0.000000	0.000000	0.000000	0.000000	0.000000	0.000000	0.000000	0.000000	0.000000	0.000000	0.000000	0.000000	0.000000	0.000000	0.000000	0.000000	0.000000	0.000000	0.000000	0.000000	0.000000	0.000000	0.000000	0.000000	0.000000	15.674639	553.871213	11.255600	1.083468	0.000000	0.238691	-0.000000	6.625946	0.000000	-12.188038	592.783117	1.605669	1.387183	0.000000	0.261697	0.000000	-4.529036	-0.000000
7.726500	0.000000	0.000000	0.000000	0.000000	0.000000	0.000000	0.000000	0.000000	0.000000	0.000000	0.000000	0.000000	0.000000	0.000000	0.000000	0.000000	0.000000	0.000000	0.000000	0.000000	0.000000	0.000000	0.000000	0.000000	0.000000	0.000000	0.000000	15.644588	553.741337	11.271058	1.083491	0.000000	0.238675	-0.000000	6.619979	0.000000	-12.185284	592.700821	1.643120	1.387183	0.000000	0.261680	0.000000	-4.534650	-0.000000
7.727000	0.000000	0.000000	0.000000	0.000000	0.000000	0.000000	0.000000	0.000000	0.000000	0.000000	0.000000	0.000000	0.000000	0.000000	0.000000	0.000000	0.000000	0.000000	0.000000	0.000000	0.000000	0.000000	0.000000	0.000000	0.000000	0.000000	0.000000	15.614749	553.609536	11.286787	1.083513	0.000000	0.238660	-0.000000	6.614060	0.000000	-12.181975	592.616989	1.679634	1.387184	0.000000	0.261664	0.000000	-4.540292	-0.000000
7.727500	0.000000	0.000000	0.000000	0.000000	0.000000	0.000000	0.000000	0.000000	0.000000	0.000000	0.000000	0.000000	0.000000	0.000000	0.000000	0.000000	0.000000	0.000000	0.000000	0.000000	0.000000	0.000000	0.000000	0.000000	0.000000	0.000000	0.000000	15.585129	553.475871	11.302770	1.083535	0.000000	0.238646	-0.000000	6.608183	0.000000	-12.178090	592.531657	1.715192	1.387184	0.000000	0.261649	0.000000	-4.545963	-0.000000
7.728000	0.000000	0.000000	0.000000	0.000000	0.000000	0.000000	0.000000	0.000000	0.000000	0.000000	0.000000	0.000000	0.000000	0.000000	0.000000	0.000000	0.000000	0.000000	0.000000	0.000000	0.000000	0.000000	0.000000	0.000000	0.000000	0.000000	0.000000	15.555737	553.340401	11.318991	1.083555	0.000000	0.238632	-0.000000	6.602344	0.000000	-12.173608	592.444871	1.749779	1.387184	0.000000	0.261635	0.000000	-4.551662	-0.000000
7.728500	0.000000	0.000000	0.000000	0.000000	0.000000	0.000000	0.000000	0.000000	0.000000	0.000000	0.000000	0.000000	0.000000	0.000000	0.000000	0.000000	0.000000	0.000000	0.000000	0.000000	0.000000	0.000000	0.000000	0.000000	0.000000	0.000000	0.000000	15.526582	553.203189	11.335430	1.083575	0.000000	0.238618	-0.000000	6.596538	0.000000	-12.168513	592.356678	1.783377	1.387185	0.000000	0.261621	0.000000	-4.557388	-0.000000
7.729000	0.000000	0.000000	0.000000	0.000000	0.000000	0.000000	0.000000	0.000000	0.000000	0.000000	0.000000	0.000000	0.000000	0.000000	0.000000	0.000000	0.000000	0.000000	0.000000	0.000000	0.000000	0.000000	0.000000	0.000000	0.000000	0.000000	0.000000	15.497673	553.064314	11.352065	1.083594	0.000000	0.238604	-0.000000	6.590757	0.000000	-12.162789	592.267111	1.815970	1.387186	0.000000	0.261608	0.000000	-4.563140	-0.000000
7.729500	0.000000	0.000000	0.000000	0.000000	0.000000	0.000000	0.000000	0.000000	0.000000	0.000000	0.000000	0.000000	0.000000	0.000000	0.000000	0.000000	0.000000	0.000000	0.000000	0.000000	0.000000	0.000000	0.000000	0.000000	0.000000	0.000000	0.000000	15.469022	552.923857	11.368874	1.083612	0.000000	0.238591	-0.000000	6.584998	0.000000	-12.156424	592.176189	1.847541	1.387187	0.000000	0.261596	0.000000	-4.568916	-0.000000
7.730000	0.000000	0.000000	0.000000	0.000000	0.000000	0.000000	0.000000	0.000000	0.000000	0.000000	0.000000	0.000000	0.000000	0.000000	0.000000	0.000000	0.000000	0.000000	0.000000	0.000000	0.000000	0.000000	0.000000	0.000000	0.000000	0.000000	0.000000	15.440638	552.781890	11.385835	1.083628	0.000000	0.238578	-0.000000	6.579254	0.000000	-12.149409	592.083928	1.878081	1.387187	0.000000	0.261584	0.000000	-4.574714	-0.000000
7.730500	0.000000	0.000000	0.000000	0.000000	0.000000	0.000000	0.000000	0.000000	0.000000	0.000000	0.000000	0.000000	0.000000	0.000000	0.000000	0.000000	0.000000	0.000000	0.000000	0.000000	0.000000	0.000000	0.000000	0.000000	0.000000	0.000000	0.000000	15.412527	552.638468	11.402923	1.083644	0.000000	0.238566	-0.000000	6.573518	0.000000	-12.141738	591.990351	1.907588	1.387189	0.000000	0.261572	0.000000	-4.580534	-0.000000
7.731000	0.000000	0.000000	0.000000	0.000000	0.000000	0.000000	0.000000	0.000000	0.000000	0.000000	0.000000	0.000000	0.000000	0.000000	0.000000	0.000000	0.000000	0.000000	0.000000	0.000000	0.000000	0.000000	0.000000	0.000000	0.000000	0.000000	0.000000	15.384690	552.493626	11.420106	1.083658	0.000000	0.238554	-0.000000	6.567784	0.000000	-12.133407	591.895486	1.936067	1.387190	0.000000	0.261562	0.000000	-4.586374	-0.000000
7.731500	0.000000	0.000000	0.000000	0.000000	0.000000	0.000000	0.000000	0.000000	0.000000	0.000000	0.000000	0.000000	0.000000	0.000000	0.000000	0.000000	0.000000	0.000000	0.000000	0.000000	0.000000	0.000000	0.000000	0.000000	0.000000	0.000000	0.000000	15.357123	552.347387	11.437343	1.083672	0.000000	0.238542	-0.000000	6.562048	0.000000	-12.124417	591.799381	1.963525	1.387191	0.000000	0.261552	0.000000	-4.592231	-0.000000
